<?xml version="1.0" encoding="utf-8"?>
<!-- Generator: Adobe Illustrator 27.0.0, SVG Export Plug-In . SVG Version: 6.00 Build 0)  -->
<svg version="1.1" id="Layer_1" xmlns="http://www.w3.org/2000/svg" xmlns:xlink="http://www.w3.org/1999/xlink" x="0px" y="0px"
	 viewBox="0 0 116.2 99.8" style="enable-background:new 0 0 116.2 99.8;" xml:space="preserve">
<style type="text/css">
	.st0{fill:#FFFFFF;}
	.st1{fill:#2A2A2A;}
</style>
<g>
	<circle class="st0" cx="63.2" cy="18.2" r="12.4"/>
	<path class="st0" d="M92.4,44.4c0,0-22.7-10.7-29.9-10.7c-5.8,0-29.9,10.7-29.9,10.7c-2.4,1.1-3.5,3.9-2.4,6.3l0,0
		c1.1,2.4,3.9,3.5,6.3,2.4L52.6,46c0,0.3,0,0.5,0,0.8v10.6c0,1.2,0.2,2.3,0.6,3.4l-9.5,24.3c-1,2.5,0.3,5.3,2.8,6.3l0,0
		c2.5,1,5.3-0.3,6.3-2.8l8.4-21.5c0.4,0,0.7,0.1,1.1,0.1c0.1,0,0.2,0,0.3,0s0.2,0,0.3,0c0.4,0,0.7,0,1.1-0.1l8.4,21.5
		c1,2.5,3.8,3.7,6.3,2.8l0,0c2.5-1,3.7-3.8,2.8-6.3L72,60.8c0.4-1,0.6-2.2,0.6-3.4V46.9c0-0.3,0-0.5,0-0.8l16.1,7.1
		c2.4,1.1,5.2,0,6.3-2.4l0,0C95.9,48.3,94.8,45.5,92.4,44.4z"/>
	<path class="st1" d="M54.7,36.9c0.2,0,0.4,0,0.6,0c0.5,0.1,0.9,0.1,1.1-0.5c0.4-0.1,0.9-0.1,1.3-0.2c0.3,0.4,0.9,0.5,0.8,1.1
		c-6.7,2.1-12.8,5.4-19,8.4c-2,1-4.1,2-5.4,3.9c-1.3,1.8-0.9,3,1.2,3.5c2.1,0.5,4.1,0.4,6.2-0.5c3.1-1.3,6.1-2.9,9-4.6
		c3.2-1.8,4-1.4,4.9,2.2c0.1,0.5,0.2,1,0.2,1.5c0.2,3.2-0.1,6.4,0.6,9.6c0.3,1.3-0.1,2.5-0.6,3.6c-1.8,4-3.8,7.9-5.4,11.9
		c-1.4,3.5-3.1,6.9-3.6,10.7c-0.4,0.1-1-0.5-1.1,0.1c-0.2,1.1-0.5,2.3,0.8,3c0,0.4,0,0.9,0,1.3c-2.4-2.3-1.5-5-1-7.6
		c0.9-4.5,3.2-8.5,5.1-12.7c1-2.2,1.8-4.6,3.1-6.7c0.3-0.5,0.4-1.3,0.4-1.9c0-4.2,0-8.5,0.1-12.7c0-1.4-0.3-1.8-1.7-1
		c-3.9,2.3-7.9,4.6-12.3,5.8c-2.4,0.7-4.7,0.2-6.9-1.1c-1.7-1.1-2.1-2.7-1.2-4.5c0.7-1.3,1.7-2.3,3-3.1c4.5-3,9.5-5.1,14.4-7.3
		c1.5-0.7,2.9-1.7,4.6-1.8C54.4,37.5,54.6,37.3,54.7,36.9z M84.1,52.4c0.5,0.3,1,0.7,1.7,0.5c0-0.5,0-1,0-1.5
		c-3.5-1.2-6.5-3.2-9.9-4.7c-1.6-0.7-2-0.1-2.1,1.3c-0.9,8.8-0.2,17.3,4,25.4c2.1,4,3.4,8.4,5.2,12.6c1,2.2-1.1,5.4-3.4,5.9
		c-1.8,0.4-2.7-0.7-3.5-2c-2.2-3.7-3.5-7.8-5.3-11.7c-0.7-1.6-1.3-3.2-1.9-4.9c-0.5-0.1-0.9-0.3-0.3-0.9c0.2-1.1-0.4-2.1-0.8-3.1
		c-0.7-0.2-1-0.7-1-1.4c-1.1-0.5-2.2-0.4-3.4-0.3c-0.8,0-1.5,0.2-1.2,1.3c0.2,1,0.7,1.5,1.7,0.8c0.2-0.1,0.2-0.2,0.2-0.3
		c1.9-0.4,2.5-0.1,2.2,1.4c0,0.3,0,0.5,0.1,0.8c1.6,1.6,1.5,3.9,2.1,5.9c-0.1,0.4-0.1,0.8,0.3,1.1c0.8,0.2,0.6,0.8,0.6,1.4
		c0.1,0.3,0.3,0.5,0.4,0.8c1.6,1,0.9,2.7,1.3,4c0.1,0.3,0.2,0.5,0.3,0.8c0.6,0.2,0.6,0.6,0.6,1.1c0.5,1.7,1.4,3.2,2.3,4.6
		c1.6,2.5,4,3.2,6.6,2c3-1.4,5-4.7,4.1-7.2c-1.8-5.2-4-10.2-6.1-15.3c-1.6-3.8-3.6-7.5-3.7-11.7c-0.1-3,0.1-5.9,0.1-8.9
		c0-1.5,0.6-1.5,1.7-1c2,0.9,3.7,2.2,5.9,2.7C83.5,51.9,83.9,51.9,84.1,52.4z M75.3,10.8c-0.4-0.7-1-1.1-1.7-1.4
		c-0.4,0-0.8-0.1-0.9-0.6c-0.3-0.1-0.5-0.2-0.8-0.3c-0.5,0.1-0.9-0.1-1-0.7c-0.2-0.1-0.5-0.1-0.7-0.2c-0.6,0.1-1.1,0.1-1.5-0.5
		c-0.2,0-0.4,0-0.5,0c-0.6,0.1-1.3,0.4-1.6-0.5c-0.6,0-1.2,0-1.7,0c-1.2,1.1-2.8,1.4-4.3,1.5l0,0c-0.2,1-0.9,0.8-1.6,0.7
		c-0.8,0.4-1.4,0.9-1.9,1.6c-0.3,0.9-0.7,1.6-1.5,2.1h-0.2l-0.1,0.1c-1.2,2.3-1.3,4.9-2.2,7.2c0,0.3,0,0.6,0,0.9
		c0.4,0.3,0.4,0.6,0.3,1.1c0.1,0.5,0.2,1,0.3,1.5c0.8,0.3,0.6,1,0.5,1.6c0,0.3,0.1,0.5,0.4,0.6c1,0.2,1.1,1,1,1.8
		c0.1,0.1,0.3,0.3,0.4,0.4c0.5,0.2,0.8,0.6,0.9,1.1c1.5,1.8,3.2,3.2,5.6,3.4c0.3-0.4,0.6-0.8,0.9-1.2c-2.3-1.3-4.5-2.5-6.2-4.7
		c-4.3-5.8-2.4-14.7,4.5-17.2c5.5-2,11.4-0.4,14.7,7c0.2,0.4,0.4,0.8,0.5,1.2c0.5-0.2,1.1-0.3,1.6-0.5c-0.2-0.6-0.4-1.1-0.6-1.7
		c-0.5-0.2-0.6-0.6-0.5-1.1c-0.2-1.1-1-1.7-1.7-2.4C75.5,11.5,75.3,11.2,75.3,10.8z M72.5,31.6c5.3-2.8,7.2-7.6,6.2-14.8
		c-0.5,0.2-1.1,0.3-1.6,0.5c0.6,4.8-0.3,9.1-4.5,12.1c-2.8,2-5.9,2-9.1,1.7c-0.3,0.4-0.6,0.8-0.9,1.2C66,34,69.4,33.3,72.5,31.6z
		 M82.3,39.6L82.3,39.6c-0.6,0-1-0.2-1.3-0.7c-0.1-0.3-0.3-0.4-0.6-0.3c-0.5,0.1-1,0.1-1.2-0.6c-0.6-0.2-1.3-0.5-1.9-0.7
		c-0.9,0-1.8-0.1-2.4-0.8c-1.9-0.8-3.8-1.4-5.8-1.3c-1,0-2.1,0-3.1,0c-1.1-0.1-2.2-0.2-3.3,0.1c0,0.3-1.1,0.5-0.2,1
		c6.8-0.3,13.2,1.6,19.2,4.6c4.2,2.2,8.9,3.4,12.7,6.4c1.5,1.1,2.4,2.4,1.2,4.2c0.1,0.1,0.3,0.3,0.4,0.4c0.3,0,0.5,0,0.8,0
		c1-1.3,1.1-2.7,0.2-4c-1.8-2.5-4.3-4.1-7.3-4.8c-0.9,0-1.7-0.1-2-1c-0.4-0.2-0.8-0.5-1.2-0.7c-0.4,0-0.7,0-0.9-0.4
		c-0.6-0.2-1-0.9-1.8-0.8C82.8,40.7,82.6,40.1,82.3,39.6z M46.4,91.8c0.9,0.4,2.1,0,2.7,1.1c0.3,0.3,0.6,0.2,0.9,0
		c0.7-1.1,1.9-0.8,2.9-1.1c0.6-0.4,1.2-0.7,1.5-1.4c0-0.8,0.4-1.2,1.2-1.4c0.3-0.1,0.5-0.4,0.6-0.8c0-0.5-0.2-1.2,0.6-1.4
		c0.4-0.1,0.7-0.3,0.7-0.8c0.2-0.8,0.2-1.7,0.9-2.3c0.9-1.1,1.1-2.4,1.3-3.7c0-0.6-0.3-1.3,0.6-1.6c0.6-0.9,1-1.9,1.2-2.9
		c-0.1-0.9,0-1.8,1-2.3c0.4-0.5,0.7-1.1,0.8-1.8c-0.7-0.9-1.4,0.1-2.1,0c-1.1,2.9-2.7,5.6-3,8.8c0.6,0.7,0.4,1.1-0.5,1.3
		c-1.5,2.5-2.5,5.3-4.6,7.5c-1.9,2-3.7,2.2-5.6,0.7c-0.3,0.2-0.5,0.4-0.8,0.6C46.4,90.9,46.4,91.4,46.4,91.8L46.4,91.8z M95.9,51.9
		c-0.1-0.1-0.3-0.3-0.4-0.4c-2.7,1.5-5.5,1.1-8.4,0.6c-0.1,0.7-0.8,0.7-1.3,0.9c0.6,0.6,1.2,0.9,2,0.8c0.8,0,1.7-0.4,2.4,0.4
		c2.1,0.5,3.9-0.2,5.7-1.1C95.9,52.7,95.9,52.3,95.9,51.9z M57.8,36.2c0.3,0.4,0.9,0.5,0.8,1.1c1.2-0.4,2.6-0.3,3.8-1
		c-0.9-0.5,0.2-0.6,0.2-1C60.9,35.2,59.4,35.7,57.8,36.2z M53,19.9c0.9-2.4,1-5,2.2-7.2C53.4,14.7,53,17.2,53,19.9z M64.1,69.8
		c-1,0.7-1.5,0.2-1.7-0.8c-0.9,0.7-1.1,1.7-1.5,2.6c0.7,0.1,1.4-1,2.1,0C63.6,71.1,63.9,70.5,64.1,69.8z M68.7,77.5
		c-0.6-2-0.5-4.2-2.1-5.9C67.2,73.6,67.6,75.7,68.7,77.5z M60.5,8.1c1.6-0.1,3.1-0.4,4.3-1.5C63.3,7,61.8,7.3,60.5,8.1z M71.3,84.8
		c-0.5-1.3,0.2-3-1.3-4C70.4,82.1,70.9,83.5,71.3,84.8z M66.5,70.8c0.3-1.5-0.3-1.8-2.2-1.4C65.5,69.2,66,70,66.5,70.8z M65.9,35.2
		c1,0,2.1,0,3.1,0C68,34.5,67,34.7,65.9,35.2z M55.4,12.5c0.8-0.5,1.2-1.2,1.5-2.1C55.9,10.8,55.7,11.6,55.4,12.5z M52.7,91.8
		c-1,0.3-2.2-0.1-2.9,1.1C50.9,92.6,52,92.7,52.7,91.8z M49,92.9c-0.6-1.1-1.8-0.7-2.7-1.1C47,92.8,48.1,92.6,49,92.9z M62.3,73.4
		c-0.9,0.5-1,1.4-1,2.3C61.6,74.9,62,74.1,62.3,73.4z M90.2,54.1c-0.7-0.8-1.6-0.4-2.4-0.4C88.5,54.4,89.4,54.2,90.2,54.1z
		 M85.8,51.4c0,0.5,0,1,0,1.5l0,0c0.5-0.2,1.2-0.2,1.3-0.9C86.8,51.7,86.4,51.3,85.8,51.4z M58.3,83.9c-0.8,0.6-0.8,1.5-0.9,2.3
		C58.1,85.6,58.1,84.7,58.3,83.9z M74.9,36.5c0.6,0.8,1.5,0.8,2.4,0.8C76.6,36.6,75.7,36.7,74.9,36.5z M87.6,42c0.4,0.9,1.2,1.1,2,1
		C88.9,42.8,88.5,41.9,87.6,42z M55.6,27.4c0.1-0.8-0.1-1.5-1-1.8C54.8,26.2,55,26.9,55.6,27.4z M55.5,89.1
		c-0.8,0.1-1.2,0.6-1.2,1.4C54.9,90.2,55.1,89.6,55.5,89.1z M60.2,78.6c-0.8,0.3-0.6,1-0.6,1.6C60,79.7,60.2,79.2,60.2,78.6z
		 M66.5,6.6c0.4,0.8,1,0.6,1.6,0.5C67.7,6.7,67.1,6.5,66.5,6.6z M68.7,7.1c0.4,0.6,0.9,0.5,1.5,0.5C69.8,7.1,69.3,6.9,68.7,7.1z
		 M58.8,8.9c0.7,0.1,1.4,0.3,1.6-0.7C59.9,8.4,59.4,8.6,58.8,8.9z M56.6,86.9c-0.8,0.2-0.6,0.9-0.6,1.4
		C56.7,88.1,56.4,87.4,56.6,86.9z M54.2,25c0.1-0.6,0.3-1.3-0.5-1.6C53.7,24,53.8,24.5,54.2,25z M56.9,28.9c-0.1-0.6-0.3-1-0.9-1.1
		C56.3,28.2,56.3,28.8,56.9,28.9z M81,38.9c0.3,0.5,0.7,0.8,1.3,0.7C82.1,39.1,81.5,39,81,38.9z M82.3,39.6c0.3,0.5,0.5,1.1,1.3,0.6
		C83.2,40,82.7,39.8,82.3,39.6z M96.7,51.9c-0.3,0-0.5,0-0.8,0c0,0.4,0,0.7,0,1.1C96.4,52.8,96.4,52.3,96.7,51.9z M69.6,80
		c0-0.5,0.2-1.2-0.6-1.4C69.1,79.1,69.1,79.7,69.6,80z M79.2,38.1c0.2,0.7,0.6,0.7,1.2,0.6C80,38.5,79.6,38.3,79.2,38.1z M53.3,21.9
		c0.1-0.4,0.1-0.8-0.3-1.1C52.9,21.2,52.9,21.6,53.3,21.9z M85.4,41c0.2,0.4,0.6,0.4,0.9,0.4C86.1,41.1,85.8,40.8,85.4,41z
		 M84.1,52.4c-0.2-0.5-0.6-0.6-1.1-0.5C83.3,52.3,83.6,52.6,84.1,52.4z M54,37.3c0.4,0.2,0.6,0,0.8-0.4C54.3,36.8,54.1,37,54,37.3z
		 M72.2,86.8c0.1-0.5,0.1-1-0.6-1.1C71.5,86.2,71.8,86.5,72.2,86.8z M77.6,14c-0.1,0.5-0.1,0.9,0.5,1.1C78.1,14.6,77.8,14.3,77.6,14
		z M75.3,10.8c0,0.4,0.2,0.7,0.6,0.8C75.9,11.2,75.7,10.9,75.3,10.8z M55.4,36.9c0.5,0.1,0.9,0.1,1.1-0.5
		C56,36.3,55.7,36.6,55.4,36.9z M72.7,8.8c0.1,0.5,0.5,0.6,0.9,0.6C73.3,9.1,73.1,8.7,72.7,8.8z M70.9,7.8c0.1,0.6,0.5,0.7,1,0.7
		C71.6,8.2,71.2,8,70.9,7.8z M45.6,87.5c-0.2,1.1-0.5,2.3,0.8,3c0.3-0.2,0.5-0.4,0.8-0.6c-0.2-0.8-0.4-1.7-0.5-2.5
		C46.3,87.5,45.7,86.9,45.6,87.5z M67.9,69.4c0-0.7-0.4-1.1-1-1.4C67,68.7,67.3,69.2,67.9,69.4z M69,73.4c0.1-0.4-0.1-0.6-0.3-0.9
		C68.1,73.1,68.5,73.2,69,73.4z M57.9,80.4c-0.4,0.3-0.4,0.8-0.5,1.3C58.2,81.5,58.4,81.1,57.9,80.4z"/>
</g>
</svg>
